<?xml version="1.0" standalone="no"?><!DOCTYPE svg PUBLIC "-//W3C//DTD SVG 1.1//EN" "http://www.w3.org/Graphics/SVG/1.1/DTD/svg11.dtd"><svg t="1636461175276" class="icon" viewBox="0 0 1024 1024" version="1.1" xmlns="http://www.w3.org/2000/svg" p-id="2633" xmlns:xlink="http://www.w3.org/1999/xlink" width="48" height="48"><defs><style type="text/css"></style></defs><path d="M512 853.333333C323.4816 853.333333 170.666667 700.5184 170.666667 512S323.4816 170.666667 512 170.666667s341.333333 152.814933 341.333333 341.333333-152.814933 341.333333-341.333333 341.333333z m0-51.2a290.133333 290.133333 0 1 0 0-580.266666 290.133333 290.133333 0 0 0 0 580.266666z m-25.6-429.738666a25.6 25.6 0 1 1 51.2 0v248.2176a25.6 25.6 0 0 1-51.2 0v-248.251734zM512 729.1904a31.061333 31.061333 0 1 1 0-62.088533 31.061333 31.061333 0 0 1 0 62.088533z" fill="#ff4c21" p-id="2634"></path></svg>